# xmcd CD database file
#
# Track frame offsets:
#	150
#	21107
#	39315
#	55652
#	71350
#	83125
#	103667
#	124205
#	145242
#	164095
#
# Disc length: 2410 seconds
#
# Revision: 2
# Processed by: cddbd v1.5.2PL0 Copyright (c) Steve Scherf et al.
# Submitted via: CDex 1.51
#
DISCID=8309680a
DTITLE=Vince Gill - Let There Be Peace On Earth
DYEAR=1993
DGENRE=Christmas
TTITLE0=Do You Hear What I Hear
TTITLE1=Have Yourself A Merry Little Christmas
TTITLE2=One Bright Star
TTITLE3=What Child Is This
TTITLE4=Santa Claus Is Coming To Town
TTITLE5=I'll Be Home For Christmas
TTITLE6=Let There Be Peace On Earth (Duet With Jenny Gill)
TTITLE7=White Christmas
TTITLE8=Til The Season Comes Around Again
TTITLE9=It Won't Be The Same This Year
EXTD=YEAR: 1993
EXTT0=
EXTT1=
EXTT2=
EXTT3=
EXTT4=
EXTT5=
EXTT6=duet with Jenny GIll
EXTT7=
EXTT8=
EXTT9=
PLAYORDER=
